<svg xmlns="http://www.w3.org/2000/svg" viewBox="0 0 512 512">
	<circle fill="currentColor" cx="185.6708" cy="183.8122" r="65.625"/>
	<path fill="currentColor" d="M185.6708,87.5622a13.1256,13.1256,0,0,0,13.125-13.125V52.5622a13.125,13.125,0,1,0-26.25,0v21.875A13.1257,13.1257,0,0,0,185.6708,87.5622Z"/>
	<path fill="currentColor" d="M99.051,115.7519a13.1236,13.1236,0,1,0,18.56-18.56L102.1442,81.726a13.1236,13.1236,0,0,0-18.5595,18.56Z"/>
	<path fill="currentColor" d="M89.4208,183.8122a13.1257,13.1257,0,0,0-13.125-13.125H54.4208a13.125,13.125,0,0,0,0,26.25h21.875A13.1256,13.1256,0,0,0,89.4208,183.8122Z"/>
	<path fill="currentColor" d="M99.051,251.8725,83.5847,267.3431a13.1236,13.1236,0,1,0,18.56,18.56l15.4663-15.4706a13.1236,13.1236,0,1,0-18.5595-18.56Z"/>
	<path fill="currentColor" d="M185.6708,280.0622a13.1258,13.1258,0,0,0-13.125,13.125v21.875a13.125,13.125,0,0,0,26.25,0v-21.875A13.1257,13.1257,0,0,0,185.6708,280.0622Z"/>
	<path fill="currentColor" d="M272.2907,251.8725a13.1236,13.1236,0,1,0-18.56,18.56l15.4663,15.4706a13.1236,13.1236,0,1,0,18.56-18.56Z"/>
	<path fill="currentColor" d="M330.0458,183.8122a13.1257,13.1257,0,0,0-13.125-13.125h-21.875a13.125,13.125,0,0,0,0,26.25h21.875A13.1256,13.1256,0,0,0,330.0458,183.8122Z"/>
	<path fill="currentColor" d="M263.0109,119.5971a13.0824,13.0824,0,0,0,9.28-3.8452l15.4663-15.4663a13.1236,13.1236,0,1,0-18.56-18.56L253.7312,97.1923a13.125,13.125,0,0,0,9.28,22.4048Z"/>
	<path fill="currentColor" d="M456.9379,401.6714a63.97,63.97,0,0,1-14.9963,7.2055c-19.6448,6.5283-41.8787,2.9566-58.1439-9.8523a68.9311,68.9311,0,0,1-10.835-10.8339c-12.8088-16.2663-16.3806-38.5-9.8523-58.1471a63.8444,63.8444,0,0,1,7.2077-14.9931,8.8036,8.8036,0,0,0-10.1172-13.3034,87.5188,87.5188,0,1,0,110.0372,110.04A8.8,8.8,0,0,0,456.9379,401.6714Z"/>
</svg>
