<svg id="Layer_1" data-name="Layer 1" xmlns="http://www.w3.org/2000/svg" viewBox="0 0 50 50"><defs><style>.cls-1{fill:#fff;fill-rule:evenodd;}</style></defs><title>poxy-github-logo</title><path class="cls-1" d="M25,1.23a24.37,24.37,0,0,0-7.7,47.5C18.51,49,19,48.2,19,47.56s0-2.12,0-4.15c-6.78,1.47-8.21-3.27-8.21-3.27C9.61,37.33,8,36.58,8,36.58c-2.21-1.51.17-1.48.17-1.48a5.12,5.12,0,0,1,3.73,2.51c2.17,3.72,5.7,2.65,7.09,2a5.25,5.25,0,0,1,1.55-3.26c-5.41-.61-11.1-2.7-11.1-12A9.41,9.41,0,0,1,12,17.79a8.75,8.75,0,0,1,.24-6.45s2-.66,6.7,2.49a23.1,23.1,0,0,1,12.2,0c4.66-3.15,6.7-2.49,6.7-2.49A8.75,8.75,0,0,1,38,17.79a9.41,9.41,0,0,1,2.51,6.54c0,9.36-5.7,11.42-11.13,12a5.83,5.83,0,0,1,1.65,4.51c0,3.26,0,5.89,0,6.69,0,.65.44,1.41,1.68,1.17A24.38,24.38,0,0,0,25,1.23Z"/></svg>